<svg width="300" height="150" viewBox="0 0 300 150" fill="none" xmlns="http://www.w3.org/2000/svg">
<g clip-path="url(#clip0_350_142)">
<path d="M114.062 104.086L108.927 96.532V104.086H107.202V93.7206H108.972L114.003 101.07V93.7206H115.729V104.086H114.062Z" fill="#244284"/>
<path d="M126.409 104.086L125.687 102.098H121.026L120.303 104.086H118.416L122.282 93.7206H124.436L128.302 104.086H126.414H126.409ZM123.356 95.2618L121.514 100.499H125.204L123.361 95.2618H123.356Z" fill="#244284"/>
<path d="M132.38 104.086V95.3237H129.399V93.7253H137.086V95.3237H134.105V104.086H132.38Z" fill="#244284"/>
<path d="M140.17 104.086V93.7206H141.896V104.086H140.17Z" fill="#244284"/>
<path d="M150.201 93.5493C153.15 93.5493 155.232 95.8184 155.232 98.9104C155.232 102.002 153.15 104.272 150.201 104.272C147.252 104.272 145.17 102.002 145.17 98.9104C145.17 95.8184 147.252 93.5493 150.201 93.5493ZM150.201 95.1667C148.209 95.1667 146.94 96.765 146.94 98.9104C146.94 101.056 148.209 102.654 150.201 102.654C152.193 102.654 153.462 101.037 153.462 98.9104C153.462 96.7841 152.179 95.1667 150.201 95.1667Z" fill="#244284"/>
<path d="M165.38 104.086L160.245 96.532V104.086H158.52V93.7206H160.29L165.321 101.07V93.7206H167.047V104.086H165.38Z" fill="#244284"/>
<path d="M177.727 104.086L177.005 102.098H172.344L171.621 104.086H169.734L173.6 93.7206H175.754L179.62 104.086H177.732H177.727ZM174.674 95.2618L172.832 100.499H176.522L174.679 95.2618H174.674Z" fill="#244284"/>
<path d="M182.316 104.086V93.7206H184.041V102.483H188.377V104.081H182.311L182.316 104.086Z" fill="#244284"/>
<path d="M197.301 101.227C197.978 101.988 199.04 102.659 200.412 102.659C201.785 102.659 202.391 101.926 202.391 101.246C202.391 100.314 201.343 100.033 200.146 99.7096C198.538 99.291 196.65 98.7915 196.65 96.6033C196.65 94.8956 198.082 93.5731 200.236 93.5731C201.772 93.5731 203.009 94.0869 203.926 95.0192L202.937 96.3702C202.169 95.5615 201.121 95.1905 200.092 95.1905C199.062 95.1905 198.425 95.7042 198.425 96.4796C198.425 97.255 199.428 97.55 200.593 97.8639C202.214 98.3016 204.147 98.8296 204.147 101.08C204.147 102.806 202.996 104.281 200.34 104.281C198.525 104.281 197.21 103.615 196.343 102.635L197.301 101.237V101.227Z" fill="#244284"/>
<path d="M207.363 104.086V93.7206H214.106V95.3189H209.088V98.0066H214.002V99.605H209.088V102.478H214.106V104.077H207.363V104.086Z" fill="#244284"/>
<path d="M217.055 98.9104C217.055 95.7233 219.313 93.5493 222.145 93.5493C224.209 93.5493 225.432 94.6387 226.173 95.8802L224.696 96.6747C224.222 95.8184 223.278 95.1667 222.145 95.1667C220.27 95.1667 218.825 96.7365 218.825 98.9104C218.825 101.084 220.27 102.654 222.145 102.654C223.283 102.654 224.227 102.017 224.696 101.146L226.173 101.941C225.419 103.182 224.213 104.272 222.145 104.272C219.313 104.272 217.055 102.098 217.055 98.9104Z" fill="#244284"/>
<path d="M229.181 93.7206H230.92V99.938C230.92 101.584 231.791 102.659 233.444 102.659C235.097 102.659 235.951 101.589 235.951 99.938V93.7206H237.689V99.9808C237.689 102.559 236.289 104.272 233.44 104.272C230.59 104.272 229.176 102.545 229.176 99.9998V93.7206H229.181Z" fill="#244284"/>
<path d="M247.029 104.086L244.848 100.219H243.136V104.086H241.411V93.7206H245.733C247.679 93.7206 248.948 95.0573 248.948 96.9696C248.948 98.8819 247.797 99.8143 246.618 100.014L249.021 104.086H247.029ZM245.494 95.3237H243.132V98.6203H245.494C246.469 98.6203 247.174 97.9686 247.174 96.9744C247.174 95.9801 246.465 95.3284 245.494 95.3284V95.3237Z" fill="#244284"/>
<path d="M252.295 104.086V93.7206H254.02V104.086H252.295Z" fill="#244284"/>
<path d="M260.085 104.086V95.3237H257.105V93.7253H264.791V95.3237H261.811V104.086H260.085Z" fill="#244284"/>
<path d="M270.663 104.086V99.781L266.842 93.7206H268.82L271.534 98.1636L274.221 93.7206H276.199L272.392 99.781V104.086H270.667H270.663Z" fill="#244284"/>
<path d="M37.277 40L15.7842 109L37.277 92.7977L58.7698 109L37.277 40Z" fill="#ED1B25"/>
<path d="M25.7742 66.3965H0L20.9373 82.5226L25.7742 66.3965Z" fill="#0AAAF2"/>
<path d="M25.7742 66.3965H0L19.9843 78.0083L25.7742 66.3965Z" fill="#244284"/>
<path d="M48.7753 66.3965H74.5495L53.6122 82.5226L48.7753 66.3965Z" fill="#0AAAF2"/>
<path d="M48.7753 66.3965H74.5495L54.5651 78.0083L48.7753 66.3965Z" fill="#244284"/>
<path d="M37.277 40L58.7698 109L37.277 87.6602V40Z" fill="#A5191D"/>
<path d="M84.973 43.9626H93.87C95.0126 43.9626 96.11 44.1339 97.1713 44.4764C98.2281 44.8189 99.1765 45.3374 100.008 46.0224C100.839 46.7122 101.516 47.5542 102.035 48.5484C102.555 49.5473 102.866 50.6985 102.966 52.0019V63.9705C102.866 65.2787 102.559 66.4299 102.035 67.4288C101.511 68.4278 100.839 69.2698 100.008 69.9548C99.1765 70.6445 98.2326 71.1583 97.1713 71.5008C96.11 71.8433 95.0126 72.0146 93.87 72.0146H92.2577V83.4456H84.973V43.9626ZM95.681 53.429C95.681 52.7773 95.55 52.2065 95.288 51.7118C95.0261 51.217 94.5564 50.9697 93.87 50.9697H92.2577V65.0313H93.87C94.5564 65.0313 95.0261 64.784 95.288 64.2892C95.55 63.7945 95.681 63.2189 95.681 62.5672V53.4338V53.429Z" fill="#244284"/>
<path d="M128.22 43.4489C129.363 43.4489 130.46 43.6201 131.522 43.9626C132.579 44.3051 133.527 44.8236 134.358 45.5086C135.189 46.1936 135.866 47.0404 136.386 48.0346C136.905 49.0335 137.217 50.1847 137.316 51.4881V75.9295C137.217 77.2377 136.91 78.3889 136.386 79.3831C135.862 80.382 135.189 81.224 134.358 81.909C133.527 82.594 132.583 83.1126 131.522 83.4551C130.46 83.7976 129.363 83.9688 128.22 83.9688C127.078 83.9688 125.98 83.7976 124.919 83.4551C123.858 83.1126 122.914 82.594 122.083 81.909C121.252 81.224 120.574 80.3773 120.055 79.3831C119.531 78.3841 119.224 77.2329 119.125 75.9295V51.4929C119.224 50.1847 119.531 49.0335 120.055 48.0393C120.574 47.0404 121.252 46.1984 122.083 45.5134C122.914 44.8284 123.858 44.3099 124.919 43.9674C125.976 43.6249 127.078 43.4536 128.22 43.4536V43.4489ZM130.031 52.9248C130.031 52.2731 129.9 51.707 129.639 51.2265C129.377 50.7461 128.907 50.4892 128.22 50.4559C127.534 50.4892 127.064 50.7461 126.802 51.2265C126.54 51.707 126.409 52.2731 126.409 52.9248V75.1208C126.409 75.7725 126.54 76.3386 126.802 76.8191C127.064 77.2995 127.534 77.5564 128.22 77.5897C128.907 77.5564 129.377 77.2995 129.639 76.8191C129.9 76.3386 130.031 75.7725 130.031 75.1208V52.9248Z" fill="#244284"/>
<path d="M162.223 77.0759H169.508V83.4598H154.938V44.0149H162.223V77.0759Z" fill="#244284"/>
<path d="M206.347 83.4645H198.818L198.181 77.0807H192.997L192.36 83.4645H184.831L190.404 44.0149H200.72L206.342 83.4645H206.347ZM197.107 70.849L195.589 51.2265L194.072 70.849H197.102H197.107Z" fill="#244284"/>
<path d="M231.014 72.0288H229.791V83.4599H222.506V43.9626H231.403C232.545 43.9626 233.643 44.1339 234.704 44.4764C235.761 44.8189 236.709 45.3374 237.54 46.0224C238.371 46.7074 239.049 47.5542 239.568 48.5484C240.088 49.5473 240.399 50.6985 240.499 52.0019V63.9657C240.399 65.2739 240.092 66.4251 239.568 67.4193C239.044 68.4183 238.376 69.2603 237.563 69.9453L241.573 83.4551H234.289L231.014 72.0241V72.0288ZM233.214 53.4386C233.214 52.7868 233.083 52.2113 232.821 51.7118C232.559 51.2123 232.089 50.9649 231.403 50.9649H229.791V65.0741H231.403C232.089 65.0741 232.559 64.8268 232.821 64.3273C233.083 63.8278 233.214 63.257 233.214 62.6005V53.4338V53.4386Z" fill="#244284"/>
<path d="M258.225 44.0149H265.509V83.4645H258.225V44.0149Z" fill="#244284"/>
<path d="M299.024 50.9173C298.437 50.8508 297.868 50.7794 297.313 50.7128C296.857 50.6462 296.382 50.5939 295.895 50.5606C295.407 50.5273 295.014 50.5082 294.721 50.5082C294.002 50.5082 293.406 50.5701 292.937 50.689C292.462 50.8079 292.097 51.0315 291.835 51.3597C291.573 51.688 291.388 52.1399 291.275 52.725C291.162 53.3101 291.103 54.0807 291.103 55.0416C291.103 55.7647 291.324 56.5544 291.762 57.4106C292.2 58.2669 292.747 59.1707 293.402 60.1126C294.052 61.0592 294.77 62.0344 295.551 63.0476C296.333 64.0609 297.051 65.0836 297.701 66.1111C298.352 67.1434 298.898 68.1899 299.341 69.2507C299.779 70.3163 300 71.3438 300 72.3428C300 76.1198 299.146 78.993 297.435 80.9672C295.723 82.9413 293.289 83.926 290.127 83.926C289.378 83.926 288.61 83.8547 287.829 83.7215C287.178 83.6168 286.469 83.4361 285.702 83.1792C284.934 82.9223 284.225 82.5513 283.574 82.0708V75.6869C284.162 75.9295 284.762 76.1341 285.385 76.3053C285.941 76.4766 286.56 76.6241 287.242 76.743C287.928 76.8619 288.61 76.9238 289.297 76.9238C289.522 76.9238 289.802 76.9 290.127 76.8476C290.453 76.7953 290.755 76.6336 291.031 76.3577C291.306 76.0818 291.546 75.6536 291.74 75.0685C291.934 74.4834 292.033 73.6605 292.033 72.5949C292.033 71.7386 291.812 70.8967 291.374 70.0737C290.936 69.2507 290.389 68.3992 289.735 67.524C289.084 66.6487 288.366 65.7544 287.585 64.8458C286.804 63.9372 286.085 62.9668 285.435 61.9345C284.785 60.9022 284.238 59.8224 283.796 58.6903C283.353 57.5581 283.136 56.3213 283.136 54.9798C283.136 53.8476 283.249 52.6108 283.48 51.2741C283.705 49.9374 284.148 48.6911 284.798 47.5399C285.449 46.3887 286.347 45.4278 287.485 44.6572C288.628 43.8865 290.109 43.4965 291.934 43.4965C292.327 43.4965 292.815 43.506 293.402 43.5202C293.989 43.5393 294.608 43.5821 295.258 43.6487C295.908 43.72 296.563 43.8104 297.213 43.9341C297.864 44.053 298.469 44.2195 299.024 44.4241V50.9126V50.9173Z" fill="#244284"/>
</g>
<defs>
<clipPath id="clip0_350_142">
<rect width="300" height="69" fill="white" transform="translate(0 40)"/>
</clipPath>
</defs>
</svg>
