<svg width="252" height="57" viewBox="0 0 252 57" fill="none" xmlns="http://www.w3.org/2000/svg">
<path d="M95.8123 52.9406L91.499 46.7003V52.9406H90.0498V44.3779H91.5369L95.763 50.4492V44.3779H97.2122V52.9406H95.8123Z" fill="white"/>
<path d="M106.184 52.9406L105.577 51.298H101.662L101.055 52.9406H99.4692L102.717 44.3779H104.526L107.774 52.9406H106.188H106.184ZM103.619 45.6511L102.072 49.9777H105.171L103.623 45.6511H103.619Z" fill="white"/>
<path d="M111.199 52.9406V45.7021H108.695V44.3818H115.152V45.7021H112.648V52.9406H111.199Z" fill="white"/>
<path d="M117.743 52.9406V44.3779H119.192V52.9406H117.743Z" fill="white"/>
<path d="M126.169 44.2364C128.646 44.2364 130.395 46.1108 130.395 48.6651C130.395 51.2194 128.646 53.0939 126.169 53.0939C123.692 53.0939 121.943 51.2194 121.943 48.6651C121.943 46.1108 123.692 44.2364 126.169 44.2364ZM126.169 45.5725C124.496 45.5725 123.43 46.8929 123.43 48.6651C123.43 50.4374 124.496 51.7578 126.169 51.7578C127.842 51.7578 128.908 50.4217 128.908 48.6651C128.908 46.9086 127.831 45.5725 126.169 45.5725Z" fill="white"/>
<path d="M138.919 52.9406L134.606 46.7003V52.9406H133.157V44.3779H134.644L138.87 50.4492V44.3779H140.319V52.9406H138.919Z" fill="white"/>
<path d="M149.291 52.9406L148.684 51.298H144.769L144.162 52.9406H142.577L145.824 44.3779H147.634L150.881 52.9406H149.295H149.291ZM146.727 45.6511L145.179 49.9777H148.278L146.731 45.6511H146.727Z" fill="white"/>
<path d="M153.145 52.9406V44.3779H154.595V51.6163H158.236V52.9367H153.142L153.145 52.9406Z" fill="white"/>
<path d="M165.733 50.5789C166.302 51.2076 167.194 51.7617 168.347 51.7617C169.5 51.7617 170.008 51.1566 170.008 50.5946C170.008 49.8244 169.128 49.5925 168.123 49.3253C166.772 48.9795 165.187 48.5669 165.187 46.7592C165.187 45.3485 166.389 44.256 168.199 44.256C169.489 44.256 170.528 44.6804 171.298 45.4507L170.467 46.5667C169.823 45.8986 168.942 45.5921 168.077 45.5921C167.212 45.5921 166.678 46.0165 166.678 46.6571C166.678 47.2976 167.52 47.5413 168.499 47.8006C169.86 48.1621 171.484 48.5983 171.484 50.4571C171.484 51.8835 170.517 53.1018 168.286 53.1018C166.761 53.1018 165.657 52.5516 164.929 51.7421L165.733 50.5868V50.5789Z" fill="white"/>
<path d="M174.185 52.9406V44.3779H179.849V45.6982H175.634V47.9185H179.762V49.2389H175.634V51.6124H179.849V52.9328H174.185V52.9406Z" fill="white"/>
<path d="M182.326 48.6651C182.326 46.0323 184.223 44.2364 186.602 44.2364C188.335 44.2364 189.363 45.1363 189.986 46.1619L188.745 46.8182C188.347 46.1108 187.554 45.5725 186.602 45.5725C185.027 45.5725 183.813 46.8693 183.813 48.6651C183.813 50.461 185.027 51.7578 186.602 51.7578C187.558 51.7578 188.35 51.2312 188.745 50.5121L189.986 51.1683C189.352 52.194 188.339 53.0939 186.602 53.0939C184.223 53.0939 182.326 51.298 182.326 48.6651Z" fill="white"/>
<path d="M192.512 44.3779H193.973V49.514C193.973 50.8736 194.705 51.7617 196.093 51.7617C197.482 51.7617 198.199 50.8776 198.199 49.514V44.3779H199.659V49.5493C199.659 51.6792 198.483 53.0939 196.089 53.0939C193.696 53.0939 192.508 51.6674 192.508 49.565V44.3779H192.512Z" fill="white"/>
<path d="M207.504 52.9406L205.672 49.7458H204.234V52.9406H202.785V44.3779H206.416C208.051 44.3779 209.117 45.4821 209.117 47.0618C209.117 48.6416 208.149 49.4118 207.159 49.5768L209.177 52.9406H207.504ZM206.215 45.7022H204.231V48.4254H206.215C207.034 48.4254 207.626 47.8871 207.626 47.0658C207.626 46.2445 207.03 45.7061 206.215 45.7061V45.7022Z" fill="white"/>
<path d="M211.928 52.9406V44.3779H213.377V52.9406H211.928Z" fill="white"/>
<path d="M218.472 52.9406V45.7021H215.968V44.3818H222.425V45.7021H219.921V52.9406H218.472Z" fill="white"/>
<path d="M227.357 52.9406V49.3843L224.147 44.3779H225.809L228.089 48.0482L230.346 44.3779H232.008L228.81 49.3843V52.9406H227.361H227.357Z" fill="white"/>
<path d="M31.3127 0L13.2588 57L31.3127 43.6155L49.3666 57L31.3127 0Z" fill="#ED1B25"/>
<path d="M21.6503 21.8058H0L17.5873 35.1274L21.6503 21.8058Z" fill="#0AAAF2"/>
<path d="M21.6503 21.8058H0L16.7868 31.3981L21.6503 21.8058Z" fill="white"/>
<path d="M40.9712 21.8058H62.6215L45.0342 35.1274L40.9712 21.8058Z" fill="#0AAAF2"/>
<path d="M40.9712 21.8058H62.6215L45.8346 31.3981L40.9712 21.8058Z" fill="white"/>
<path d="M31.3125 0L49.3664 57L31.3125 39.3715V0Z" fill="#A5191D"/>
<path d="M71.3774 3.27344H78.8509C79.8107 3.27344 80.7326 3.41491 81.6241 3.69784C82.5118 3.98078 83.3084 4.40911 84.0065 4.97499C84.7045 5.54479 85.2735 6.24035 85.7098 7.06165C86.1461 7.88688 86.4078 8.83786 86.4913 9.9146V19.8017C86.4078 20.8823 86.1499 21.8333 85.7098 22.6585C85.2697 23.4838 84.7045 24.1793 84.0065 24.7452C83.3084 25.315 82.5156 25.7394 81.6241 26.0224C80.7326 26.3053 79.8107 26.4468 78.8509 26.4468H77.4966V35.8898H71.3774V3.27344ZM80.3722 11.0935C80.3722 10.5551 80.2621 10.0836 80.0421 9.67489C79.8221 9.2662 79.4275 9.06185 78.8509 9.06185H77.4966V20.678H78.8509C79.4275 20.678 79.8221 20.4736 80.0421 20.065C80.2621 19.6563 80.3722 19.1808 80.3722 18.6424V11.0974V11.0935Z" fill="white"/>
<path d="M107.705 2.84903C108.665 2.84903 109.587 2.9905 110.478 3.27343C111.366 3.55637 112.163 3.98471 112.861 4.55058C113.559 5.11645 114.128 5.81594 114.564 6.63724C115 7.46247 115.262 8.41346 115.346 9.49019V29.6809C115.262 30.7615 115.004 31.7125 114.564 32.5338C114.124 33.3591 113.559 34.0546 112.861 34.6205C112.163 35.1864 111.37 35.6147 110.478 35.8976C109.587 36.1806 108.665 36.322 107.705 36.322C106.746 36.322 105.824 36.1806 104.932 35.8976C104.041 35.6147 103.248 35.1864 102.55 34.6205C101.852 34.0546 101.283 33.3551 100.846 32.5338C100.406 31.7086 100.148 30.7576 100.065 29.6809V9.49412C100.148 8.41346 100.406 7.46247 100.846 6.64117C101.283 5.81594 101.852 5.12038 102.55 4.55451C103.248 3.98864 104.041 3.5603 104.932 3.27736C105.82 2.99443 106.746 2.85296 107.705 2.85296V2.84903ZM109.227 10.677C109.227 10.1386 109.117 9.67095 108.897 9.27406C108.676 8.87716 108.282 8.66495 107.705 8.63745C107.129 8.66495 106.734 8.87716 106.514 9.27406C106.294 9.67095 106.184 10.1386 106.184 10.677V29.0128C106.184 29.5512 106.294 30.0188 106.514 30.4157C106.734 30.8126 107.129 31.0248 107.705 31.0523C108.282 31.0248 108.676 30.8126 108.897 30.4157C109.117 30.0188 109.227 29.5512 109.227 29.0128V10.677Z" fill="white"/>
<path d="M136.268 30.6279H142.387V35.9016H130.148V3.31665H136.268V30.6279Z" fill="white"/>
<path d="M173.332 35.9055H167.008L166.473 30.6318H162.118L161.583 35.9055H155.259L159.94 3.31665H168.605L173.328 35.9055H173.332ZM165.57 25.484L164.295 9.27404L163.021 25.484H165.566H165.57Z" fill="white"/>
<path d="M194.052 26.4585H193.024V35.9016H186.905V3.27344H194.379C195.339 3.27344 196.26 3.41491 197.152 3.69784C198.04 3.98078 198.836 4.40911 199.534 4.97499C200.232 5.54086 200.801 6.24035 201.238 7.06165C201.674 7.88688 201.936 8.83786 202.019 9.9146V19.7977C201.936 20.8784 201.678 21.8294 201.238 22.6507C200.798 23.4759 200.236 24.1715 199.553 24.7373L202.922 35.8976H196.803L194.052 26.4546V26.4585ZM195.9 11.1014C195.9 10.563 195.79 10.0875 195.57 9.67489C195.35 9.26227 194.955 9.05792 194.379 9.05792H193.024V20.7134H194.379C194.955 20.7134 195.35 20.509 195.57 20.0964C195.79 19.6838 195.9 19.2122 195.9 18.6699V11.0974V11.1014Z" fill="white"/>
<path d="M216.909 3.31665H223.028V35.9055H216.909V3.31665Z" fill="white"/>
<path d="M251.18 9.01864C250.687 8.96362 250.209 8.90468 249.743 8.84966C249.36 8.79464 248.961 8.75142 248.551 8.72391C248.142 8.6964 247.812 8.68068 247.565 8.68068C246.962 8.68068 246.461 8.73177 246.067 8.83001C245.668 8.92825 245.361 9.11295 245.141 9.3841C244.921 9.65524 244.765 10.0286 244.671 10.5119C244.576 10.9953 244.526 11.6319 244.526 12.4257C244.526 13.023 244.712 13.6753 245.08 14.3826C245.448 15.09 245.907 15.8366 246.457 16.6147C247.004 17.3967 247.607 18.2023 248.263 19.0393C248.919 19.8763 249.523 20.7212 250.069 21.57C250.615 22.4228 251.074 23.2873 251.446 24.1636C251.814 25.0439 252 25.8927 252 26.7179C252 29.8381 251.283 32.2116 249.845 33.8424C248.407 35.4732 246.363 36.2867 243.707 36.2867C243.077 36.2867 242.432 36.2277 241.776 36.1177C241.23 36.0312 240.634 35.8819 239.989 35.6697C239.344 35.4575 238.749 35.151 238.202 34.7541V29.4805C238.696 29.6809 239.2 29.8499 239.724 29.9913C240.19 30.1328 240.71 30.2546 241.283 30.3529C241.86 30.4511 242.432 30.5022 243.009 30.5022C243.199 30.5022 243.434 30.4825 243.707 30.4393C243.98 30.3961 244.234 30.2625 244.466 30.0346C244.697 29.8066 244.898 29.453 245.061 28.9696C245.224 28.4863 245.308 27.8064 245.308 26.9262C245.308 26.2188 245.122 25.5233 244.754 24.8435C244.386 24.1636 243.927 23.4602 243.377 22.7371C242.831 22.0141 242.228 21.2753 241.571 20.5247C240.915 19.7742 240.312 18.9725 239.765 18.1198C239.219 17.267 238.76 16.375 238.388 15.4397C238.017 14.5045 237.834 13.4828 237.834 12.3746C237.834 11.4393 237.929 10.4176 238.123 9.31336C238.312 8.20912 238.684 7.17955 239.231 6.22856C239.777 5.27758 240.532 4.48379 241.488 3.84718C242.448 3.21057 243.692 2.88834 245.224 2.88834C245.555 2.88834 245.964 2.8962 246.457 2.90798C246.951 2.9237 247.47 2.95907 248.017 3.01409C248.563 3.07303 249.113 3.1477 249.659 3.24987C250.206 3.34811 250.714 3.48565 251.18 3.65462V9.01471V9.01864Z" fill="white"/>
</svg>
