<svg width="276" height="181" viewBox="0 0 276 181" fill="none" xmlns="http://www.w3.org/2000/svg">
<path d="M37.333 180.77L30.7413 171.535V180.77H28.5244V168.095H30.7966L37.2541 177.085V168.095H39.471V180.77H37.333Z" fill="white"/>
<path d="M53.1831 180.77L52.2561 178.34H46.2719L45.3449 180.77H42.9229L47.8853 168.095H50.6506L55.613 180.77H53.1909H53.1831ZM49.262 169.975L46.8952 176.38H51.6288L49.262 169.975Z" fill="white"/>
<path d="M60.8513 180.77V170.054H57.0249V168.099H66.8906V170.054H63.0643V180.77H60.8473H60.8513Z" fill="white"/>
<path d="M70.8472 180.77V168.095H73.0641V180.77H70.8472Z" fill="white"/>
<path d="M83.7226 167.885C87.5096 167.885 90.1801 170.66 90.1801 174.44C90.1801 178.221 87.5096 180.996 83.7226 180.996C79.9357 180.996 77.2651 178.221 77.2651 174.44C77.2651 170.66 79.9357 167.885 83.7226 167.885ZM83.7226 169.86C81.1665 169.86 79.5373 171.816 79.5373 174.44C79.5373 177.065 81.1665 179.021 83.7226 179.021C86.2788 179.021 87.908 177.045 87.908 174.44C87.908 171.836 86.2591 169.86 83.7226 169.86Z" fill="white"/>
<path d="M103.206 180.77L96.6144 171.535V180.77H94.3975V168.095H96.6696L103.127 177.085V168.095H105.344V180.77H103.206Z" fill="white"/>
<path d="M119.056 180.77L118.129 178.34H112.144L111.217 180.77H108.795L113.758 168.095H116.523L121.486 180.77H119.064H119.056ZM115.135 169.975L112.768 176.38H117.501L115.135 169.975Z" fill="white"/>
<path d="M124.941 180.77V168.095H127.158V178.811H132.724V180.766H124.941V180.77Z" fill="white"/>
<path d="M144.179 177.275C145.051 178.205 146.412 179.025 148.175 179.025C149.939 179.025 150.712 178.13 150.712 177.295C150.712 176.155 149.367 175.814 147.832 175.414C145.769 174.9 143.343 174.294 143.343 171.614C143.343 169.524 145.181 167.909 147.947 167.909C149.915 167.909 151.505 168.534 152.68 169.674L151.41 171.329C150.424 170.339 149.083 169.884 147.757 169.884C146.432 169.884 145.619 170.509 145.619 171.46C145.619 172.41 146.905 172.77 148.404 173.15C150.487 173.68 152.968 174.33 152.968 177.085C152.968 179.195 151.493 181 148.085 181C145.757 181 144.069 180.185 142.953 178.985L144.183 177.275H144.179Z" fill="white"/>
<path d="M157.095 180.77V168.095H165.749V170.05H159.312V173.336H165.619V175.292H159.312V178.807H165.749V180.762H157.095V180.77Z" fill="white"/>
<path d="M169.532 174.44C169.532 170.545 172.428 167.885 176.065 167.885C178.716 167.885 180.286 169.215 181.232 170.735L179.339 171.705C178.731 170.66 177.52 169.86 176.065 169.86C173.658 169.86 171.804 171.78 171.804 174.44C171.804 177.101 173.662 179.021 176.065 179.021C177.524 179.021 178.735 178.241 179.339 177.176L181.232 178.146C180.266 179.666 178.716 180.996 176.065 180.996C172.428 180.996 169.532 178.336 169.532 174.44Z" fill="white"/>
<path d="M185.098 168.095H187.335V175.695C187.335 177.71 188.451 179.021 190.573 179.021C192.696 179.021 193.792 177.71 193.792 175.695V168.095H196.025V175.755C196.025 178.91 194.226 181 190.569 181C186.913 181 185.098 178.89 185.098 175.774V168.099V168.095Z" fill="white"/>
<path d="M208.009 180.77L205.208 176.04H203.011V180.77H200.794V168.095H206.344C208.845 168.095 210.47 169.73 210.47 172.065C210.47 174.401 208.995 175.545 207.48 175.79L210.569 180.77H208.013H208.009ZM206.04 170.054H203.011V174.084H206.04C207.291 174.084 208.198 173.284 208.198 172.069C208.198 170.854 207.291 170.054 206.04 170.054Z" fill="white"/>
<path d="M214.766 180.77V168.095H216.983V180.77H214.766Z" fill="white"/>
<path d="M224.766 180.77V170.054H220.94V168.099H230.806V170.054H226.979V180.77H224.762H224.766Z" fill="white"/>
<path d="M238.34 180.77V175.505L233.437 168.095H235.973L239.456 173.53L242.904 168.095H245.44L240.557 175.505V180.77H238.34Z" fill="white"/>
<path d="M136.763 0L109.174 84.3838L136.763 64.5665L164.349 84.3838L136.763 0Z" fill="#ED1B25"/>
<path d="M122.002 32.2832H88.918L115.793 51.9976L122.002 32.2832Z" fill="#0AAAF2"/>
<path d="M122.002 32.2832H88.918L114.57 46.4831L122.002 32.2832Z" fill="white"/>
<path d="M151.524 32.2832H184.609L157.733 51.9976L151.524 32.2832Z" fill="#0AAAF2"/>
<path d="M151.524 32.2832H184.609L158.952 46.4831L151.524 32.2832Z" fill="white"/>
<path d="M136.763 0L164.349 84.3838L136.763 58.284V0Z" fill="#A5191D"/>
<path d="M0 107.245H11.42C12.8834 107.245 14.2957 107.455 15.6566 107.875C17.0175 108.294 18.2285 108.928 19.2976 109.767C20.3626 110.606 21.2305 111.639 21.9011 112.859C22.5717 114.078 22.9661 115.487 23.0924 117.087V131.726C22.9661 133.325 22.5677 134.734 21.9011 135.954C21.2305 137.173 20.3626 138.202 19.2976 139.046C18.2325 139.885 17.0175 140.518 15.6566 140.938C14.2957 141.357 12.8834 141.567 11.42 141.567H9.34898V155.549H0V107.245ZM13.7434 118.824C13.7434 118.029 13.5777 117.328 13.2424 116.722C12.9071 116.117 12.2996 115.812 11.4239 115.812H9.35292V133.005H11.4239C12.3036 133.005 12.9071 132.7 13.2424 132.094C13.5777 131.488 13.7434 130.788 13.7434 129.992V118.824Z" fill="white"/>
<path d="M55.5059 106.616C56.9694 106.616 58.3816 106.826 59.7425 107.245C61.1035 107.665 62.3145 108.298 63.3835 109.138C64.4525 109.977 65.3164 111.01 65.987 112.229C66.6576 113.449 67.0521 114.858 67.1783 116.453V146.341C67.0521 147.941 66.6537 149.346 65.987 150.565C65.3164 151.785 64.4486 152.814 63.3835 153.657C62.3184 154.5 61.1035 155.13 59.7425 155.549C58.3816 155.969 56.9694 156.179 55.5059 156.179C54.0424 156.179 52.6302 155.969 51.2693 155.549C49.9084 155.13 48.6973 154.5 47.6283 153.657C46.5593 152.814 45.6915 151.785 45.0248 150.565C44.3542 149.346 43.9597 147.937 43.8335 146.341V116.453C43.9597 114.854 44.3542 113.449 45.0248 112.229C45.6954 111.01 46.5632 109.981 47.6283 109.138C48.6934 108.294 49.9084 107.665 51.2693 107.245C52.6302 106.826 54.0385 106.616 55.5059 106.616ZM57.8294 118.203C57.8294 117.407 57.6637 116.715 57.3284 116.125C56.9931 115.539 56.3856 115.222 55.5099 115.179C54.6302 115.222 54.0227 115.535 53.6913 116.125C53.356 116.715 53.1904 117.407 53.1904 118.203V145.348C53.1904 146.147 53.356 146.84 53.6913 147.426C54.0266 148.016 54.6341 148.329 55.5099 148.372C56.3895 148.333 56.9931 148.016 57.3284 147.426C57.6637 146.84 57.8294 146.147 57.8294 145.348V118.203Z" fill="white"/>
<path d="M99.1542 147.739H108.503V155.549H89.8013V107.309H99.1503V147.743L99.1542 147.739Z" fill="white"/>
<path d="M155.793 155.549H146.128L145.312 147.739H138.661L137.844 155.549H128.18L135.335 107.309H148.578L155.793 155.549ZM143.931 140.118L141.986 116.125L140.041 140.118H143.931Z" fill="white"/>
<path d="M187.453 141.567H185.883V155.549H176.534V107.245H187.954C189.418 107.245 190.83 107.455 192.191 107.875C193.552 108.294 194.763 108.928 195.832 109.767C196.901 110.606 197.765 111.639 198.435 112.859C199.106 114.078 199.5 115.487 199.627 117.083V131.714C199.5 133.313 199.102 134.723 198.435 135.938C197.765 137.157 196.909 138.186 195.863 139.03L201.007 155.553H191.658L187.453 141.571V141.567ZM190.278 118.832C190.278 118.037 190.108 117.332 189.777 116.722C189.441 116.113 188.834 115.808 187.958 115.808H185.887V133.064H187.958C188.838 133.064 189.441 132.759 189.777 132.149C190.112 131.54 190.278 130.839 190.278 130.039V118.828V118.832Z" fill="white"/>
<path d="M222.375 107.309H231.724V155.549H222.375V107.309Z" fill="white"/>
<path d="M274.746 115.745C273.992 115.662 273.259 115.578 272.549 115.491C271.961 115.408 271.357 115.345 270.73 115.301C270.103 115.262 269.602 115.238 269.223 115.238C268.304 115.238 267.539 115.313 266.931 115.46C266.324 115.606 265.854 115.879 265.519 116.279C265.184 116.679 264.943 117.233 264.797 117.95C264.651 118.662 264.576 119.608 264.576 120.784C264.576 121.667 264.86 122.633 265.424 123.682C265.988 124.731 266.691 125.835 267.527 126.987C268.363 128.143 269.286 129.339 270.288 130.578C271.294 131.817 272.213 133.064 273.05 134.327C273.886 135.586 274.588 136.868 275.152 138.167C275.716 139.469 276 140.728 276 141.947C276 146.567 274.904 150.082 272.706 152.497C270.509 154.912 267.381 156.119 263.326 156.119C262.363 156.119 261.381 156.036 260.375 155.866C259.539 155.739 258.628 155.518 257.645 155.205C256.663 154.888 255.752 154.441 254.916 153.851V146.041C255.669 146.334 256.442 146.587 257.239 146.797C257.949 147.007 258.746 147.185 259.626 147.331C260.505 147.478 261.381 147.553 262.261 147.553C262.553 147.553 262.908 147.521 263.326 147.458C263.744 147.394 264.131 147.197 264.486 146.86C264.841 146.524 265.144 146.001 265.397 145.285C265.649 144.572 265.775 143.562 265.775 142.26C265.775 141.211 265.491 140.182 264.927 139.176C264.363 138.167 263.661 137.13 262.825 136.057C261.989 134.984 261.069 133.895 260.064 132.783C259.062 131.671 258.139 130.483 257.302 129.224C256.466 127.965 255.764 126.643 255.2 125.257C254.636 123.872 254.352 122.36 254.352 120.721C254.352 119.335 254.498 117.823 254.789 116.188C255.081 114.549 255.645 113.029 256.482 111.624C257.318 110.218 258.47 109.043 259.933 108.096C261.397 107.15 263.302 106.679 265.645 106.679C266.146 106.679 266.773 106.691 267.527 106.711C268.28 106.731 269.073 106.786 269.913 106.869C270.75 106.952 271.586 107.067 272.422 107.218C273.259 107.364 274.032 107.566 274.746 107.815V115.749V115.745Z" fill="white"/>
</svg>
